<svg width="256" height="256" viewBox="0 0 256 256" fill="none" xmlns="http://www.w3.org/2000/svg">
<g clip-path="url(#clip0_2_2)">
<path d="M128.001 256C198.691 256 256 198.691 256 127.999C256 57.3039 198.691 -5.60251e-05 128.001 -4.98451e-05C57.3027 -4.36645e-05 7.41822e-05 57.3039 8.03626e-05 127.999C8.65423e-05 198.687 57.3027 255.994 128.002 255.994L128.001 256ZM69.3012 71.3861C71.5939 67.626 76.5156 66.4337 80.2757 68.7418C110.329 87.0992 148.161 91.2568 192.717 81.0769C197.01 80.0986 201.29 82.7888 202.268 87.0839C203.251 91.3791 200.571 95.6589 196.267 96.6371C147.509 107.777 105.685 102.98 71.9455 82.3608C68.1854 80.0528 66.9932 75.1463 69.3012 71.3861ZM53.6343 106.239C56.5231 101.544 62.6676 100.061 67.36 102.95C101.766 124.098 154.213 130.223 194.908 117.87C200.186 116.275 205.761 119.25 207.362 124.519C208.952 129.797 205.976 135.36 200.707 136.965C154.222 151.071 96.4317 144.238 56.9206 119.958C52.2281 117.069 50.7455 110.924 53.6343 106.238L53.6343 106.239ZM52.2893 142.532C93.5429 167.036 161.606 169.289 200.993 157.334C207.318 155.416 214.007 158.987 215.923 165.312C217.84 171.64 214.273 178.324 207.943 180.247C162.729 193.973 87.5665 191.321 40.0706 163.124C34.3694 159.748 32.5047 152.4 35.8826 146.719C39.2453 141.03 46.6125 139.154 52.2832 142.532L52.2893 142.532Z" fill="#1ED760"/>
</g>
<defs>
<clipPath id="clip0_2_2">
<rect width="256" height="256" fill="white"/>
</clipPath>
</defs>
</svg>
